<svg width="238" height="238" fill="none" xmlns="http://www.w3.org/2000/svg"><path d="M72.947 33.237A46.529 46.529 0 0 1 101.15 23.8 20.908 20.908 0 0 1 119 33.082a20.912 20.912 0 0 1 17.85-9.282 46.528 46.528 0 0 1 28.203 9.437c6.248 4.855 11.067 11.579 12.769 19.706 3.903.298 7.473 1.916 10.472 4.356 4.546 3.689 7.854 9.222 9.936 15.077 3.261 9.103 4.141 20.706.762 30.583a19.85 19.85 0 0 1 2.523 1.428c3.272 2.178 5.759 5.295 7.592 8.973 3.606 7.199 5.093 17.243 5.093 29.44 0 13.578-5.176 22.693-11.745 28.322a31.892 31.892 0 0 1-12.543 6.605c-1.19 6.64-4.522 14.327-9.746 20.848-6.783 8.509-17.303 15.625-31.416 15.625-11.186 0-20.087-6.188-25.871-12.257a50.722 50.722 0 0 1-3.879-4.581 50.722 50.722 0 0 1-3.879 4.581c-5.784 6.069-14.673 12.257-25.871 12.257-14.113 0-24.621-7.116-31.416-15.625a48.278 48.278 0 0 1-9.746-20.848 31.891 31.891 0 0 1-12.543-6.605C28.976 165.493 23.8 156.366 23.8 142.8c0-12.197 1.5-22.253 5.093-29.44 1.833-3.678 4.32-6.783 7.592-8.985a18.842 18.842 0 0 1 2.523-1.404c-3.38-9.9-2.499-21.492.762-30.595 2.082-5.855 5.39-11.388 9.936-15.077 3-2.44 6.57-4.046 10.472-4.356 1.714-8.127 6.533-14.85 12.78-19.706h-.011ZM113.05 53.55v-.119l-.024-.595a32.657 32.657 0 0 0-1.832-9.091 14.549 14.549 0 0 0-3.677-5.831 9.046 9.046 0 0 0-6.367-2.214 34.629 34.629 0 0 0-20.896 6.926C74.732 46.922 71.4 52.741 71.4 59.5a5.95 5.95 0 0 1-7.83 5.64c-2.237-.737-4.237-.32-6.367 1.393-2.332 1.904-4.605 5.284-6.235 9.841-3.32 9.306-2.975 20.576 1.582 27.43a5.949 5.949 0 0 1 1 3.296h8.925a26.776 26.776 0 0 1 26.775 26.775v3.987a17.847 17.847 0 0 1 11.643 19.847 17.85 17.85 0 1 1-23.543-19.847v-3.987c0-8.211-6.664-14.875-14.875-14.875H41.65a5.927 5.927 0 0 1-2.082-.381l-.036.072c-2.356 4.7-3.832 12.507-3.832 24.109 0 10.222 3.748 15.982 7.592 19.278 4.13 3.546 8.711 4.522 10.258 4.522a5.95 5.95 0 0 1 5.95 5.95c0 4.379 2.38 12.031 7.616 18.6 5.105 6.366 12.447 11.15 22.134 11.15 6.664 0 12.638-3.725 17.255-8.568 2.273-2.38 4.046-4.843 5.2-6.866.526-.897.976-1.837 1.345-2.809V89.25h-12.911a17.853 17.853 0 0 1-19.848 11.643 17.85 17.85 0 1 1 19.848-23.543h12.911v-23.8Zm11.9 118.988v11.508c.37.971.819 1.911 1.345 2.808 1.166 2.023 2.927 4.486 5.188 6.866 4.629 4.844 10.615 8.568 17.267 8.568 9.687 0 17.029-4.784 22.134-11.15 5.236-6.569 7.616-14.221 7.616-18.6a5.95 5.95 0 0 1 5.95-5.95c1.547 0 6.129-.976 10.258-4.522 3.844-3.296 7.592-9.056 7.592-19.278 0-11.602-1.487-19.397-3.832-24.109a10.977 10.977 0 0 0-3.57-4.403 7.818 7.818 0 0 0-4.498-1.226 5.945 5.945 0 0 1-5.242-3.141 5.946 5.946 0 0 1 .292-6.105c4.569-6.855 4.902-18.124 1.582-27.43-1.63-4.557-3.903-7.949-6.235-9.84-2.13-1.715-4.13-2.143-6.367-1.393a5.95 5.95 0 0 1-7.83-5.64c0-6.76-3.332-12.58-8.865-16.875A34.632 34.632 0 0 0 136.85 35.7a9.042 9.042 0 0 0-6.366 2.214 14.509 14.509 0 0 0-3.689 5.83 30.696 30.696 0 0 0-1.845 9.687V160.65h8.925c8.211 0 14.875-6.664 14.875-14.875v-21.836a17.85 17.85 0 1 1 11.9 0v21.836a26.776 26.776 0 0 1-26.775 26.775h-8.925v-.012ZM77.35 83.3a5.95 5.95 0 1 0 11.9 0 5.95 5.95 0 0 0-11.9 0Zm77.35 29.75a5.95 5.95 0 1 0 0-11.899 5.95 5.95 0 0 0 0 11.899Zm-71.4 35.7a5.95 5.95 0 1 0 0 11.899 5.95 5.95 0 0 0 0-11.899Z" fill="#fff"/></svg>