<svg width="238" height="238" fill="none" xmlns="http://www.w3.org/2000/svg"><path d="M37.711 47.231c-7.687 0-13.91 6.224-13.91 13.9v57.881a71.397 71.397 0 0 0 65.429 71.215 71.397 71.397 0 0 0 76.382-59.315H178.5a35.7 35.7 0 1 0 0-71.4h-11.995a13.912 13.912 0 0 0-13.804-12.281H37.699h.012Zm-2.01 13.9c0-1.108.892-2 2.01-2H152.69c1.119 0 2.011.892 2.011 2v57.881a59.504 59.504 0 0 1-59.5 59.5 59.502 59.502 0 0 1-59.5-59.5V61.13ZM166.6 71.4h11.9a23.8 23.8 0 1 1 0 47.6h-11.9V71.4Z" fill="#403F4C"/></svg>