<svg width="40" height="40" fill="none" xmlns="http://www.w3.org/2000/svg"><path d="M23.847 3.301c-1.257-.28-2.54-.43-3.828-.444-1.32.014-2.605.164-3.863.444a1.319 1.319 0 00-1.023 1.143l-.299 2.682a2.438 2.438 0 01-3.387 1.965L8.99 8.01a1.314 1.314 0 00-1.49.306 17.227 17.227 0 00-3.87 6.667 1.32 1.32 0 00.477 1.453l2.182 1.607a2.43 2.43 0 010 3.914L4.107 23.57a1.32 1.32 0 00-.477 1.451 17.234 17.234 0 003.867 6.674 1.315 1.315 0 001.49.307l2.469-1.084a2.422 2.422 0 013.377 1.953l.297 2.681a1.319 1.319 0 001.003 1.138c2.542.606 5.19.606 7.733 0a1.318 1.318 0 001.003-1.138l.297-2.685a2.419 2.419 0 013.38-1.957l2.467 1.084a1.315 1.315 0 001.49-.307 17.235 17.235 0 003.867-6.667 1.32 1.32 0 00-.477-1.453l-2.179-1.609a2.428 2.428 0 01-.001-3.914l2.178-1.61a1.32 1.32 0 00.476-1.452A17.223 17.223 0 0032.5 8.314a1.314 1.314 0 00-1.49-.305L28.55 9.09a2.38 2.38 0 01-.971.206 2.43 2.43 0 01-2.411-2.169l-.3-2.684a1.317 1.317 0 00-1.02-1.142h-.002zM20 25.714a5.714 5.714 0 110-11.428 5.714 5.714 0 010 11.428z" fill="#fff"/></svg>